<svg version="1.1" xmlns="http://www.w3.org/2000/svg" xmlns:xlink="http://www.w3.org/1999/xlink" role="img" width="226" height="67" viewbox="0 0 226 67"><title>MOCK </title><path fill="#6ccb99" d="M65.80 9.20L65.80 59.60L1 59.60L1 9.20L65.80 9.20M8.20 16.40L8.20 52.40L22.60 52.40L22.60 30.80L29.80 30.80L29.80 52.40L37.00 52.40L37.00 30.80L44.20 30.80L44.20 52.40L58.60 52.40L58.60 16.40L37.00 16.40L37.00 23.60L29.80 23.60L29.80 16.40L8.20 16.40ZM109.00 9.20L109.00 59.60L58.60 59.60L58.60 9.20L109.00 9.20M65.80 16.40L65.80 52.40L101.80 52.40L101.80 16.40L65.80 16.40M80.20 23.60L87.40 23.60L87.40 45.20L80.20 45.20L80.20 23.60ZM152.20 9.20L152.20 59.60L101.80 59.60L101.80 9.20L152.20 9.20M109.00 16.40L109.00 52.40L145 52.40L145 38.00L130.60 38.00L130.60 45.20L123.40 45.20L123.40 23.60L130.60 23.60L130.60 30.80L145 30.80L145 16.40L109.00 16.40ZM195.40 9.20L195.40 59.60L145 59.60L145 9.20L195.40 9.20M152.20 16.40L152.20 52.40L166.60 52.40L166.60 38.00L173.80 38.00L173.80 52.40L188.20 52.40L188.20 38.00L181 38.00L181 30.80L188.20 30.80L188.20 16.40L173.80 16.40L173.80 30.80L166.60 30.80L166.60 16.40L152.20 16.40Z"></path></svg>